<?xml version="1.0" encoding="UTF-8" standalone="no"?>
<!DOCTYPE svg PUBLIC "-//W3C//DTD SVG 1.1//EN"
 "http://www.w3.org/Graphics/SVG/1.1/DTD/svg11.dtd">
<!-- Generated by graphviz version 2.26.3 (20100126.1600)
 -->
<!-- Title: G Pages: 1 -->
<svg width="640pt" height="550pt"
 viewBox="0.00 0.00 640.00 550.00" xmlns="http://www.w3.org/2000/svg" xmlns:xlink="http://www.w3.org/1999/xlink">
<g id="graph1" class="graph" transform="scale(1 1) rotate(0) translate(4 546)">
<title>G</title>
<polygon fill="white" stroke="white" points="-4,5 -4,-546 637,-546 637,5 -4,5"/>
<!-- 0 -->
<g id="node1" class="node"><title>0</title>
<ellipse fill="none" stroke="black" cx="388" cy="-523" rx="27" ry="18"/>
<text text-anchor="middle" x="388" y="-518.9" font-family="Times Roman,serif" font-size="14.00">0</text>
</g>
<!-- 1 -->
<g id="node2" class="node"><title>1</title>
<ellipse fill="none" stroke="black" cx="28" cy="-523" rx="27" ry="18"/>
<text text-anchor="middle" x="28" y="-518.9" font-family="Times Roman,serif" font-size="14.00">8</text>
</g>
<!-- 1&#45;&#45;0 -->
<g id="edge2" class="edge"><title>1&#45;&#45;0</title>
<path fill="none" stroke="black" d="M52.0318,-514.321C65.9083,-509.859 83.8152,-505.023 100.239,-503.401 196.414,-493.9 311.131,-509.864 361.769,-518.297"/>
<text text-anchor="middle" x="100.237" y="-490.301" font-family="Times Roman,serif" font-size="14.00">5</text>
</g>
<!-- 2 -->
<g id="node3" class="node"><title>2</title>
<ellipse fill="none" stroke="black" cx="100" cy="-523" rx="27" ry="18"/>
<text text-anchor="middle" x="100" y="-518.9" font-family="Times Roman,serif" font-size="14.00">9</text>
</g>
<!-- 2&#45;&#45;1 -->
<g id="edge4" class="edge"><title>2&#45;&#45;1</title>
<path fill="none" stroke="black" d="M72.7799,-523C67.0454,-523 60.9945,-523 55.2586,-523"/>
<text text-anchor="middle" x="64.0198" y="-509.9" font-family="Times Roman,serif" font-size="14.00">1</text>
</g>
<!-- 3 -->
<g id="node4" class="node"><title>3</title>
<ellipse fill="none" stroke="black" cx="604" cy="-307" rx="27" ry="18"/>
<text text-anchor="middle" x="604" y="-302.9" font-family="Times Roman,serif" font-size="14.00">1</text>
</g>
<!-- 3&#45;&#45;2 -->
<g id="edge6" class="edge"><title>3&#45;&#45;2</title>
<path fill="none" stroke="black" d="M581.035,-316.842C496.977,-352.867 206.617,-477.307 122.812,-513.224"/>
<text text-anchor="middle" x="347.828" y="-400.974" font-family="Times Roman,serif" font-size="14.00">7</text>
</g>
<!-- 4 -->
<g id="node5" class="node"><title>4</title>
<ellipse fill="none" stroke="black" cx="604" cy="-451" rx="27" ry="18"/>
<text text-anchor="middle" x="604" y="-446.9" font-family="Times Roman,serif" font-size="14.00">2</text>
</g>
<!-- 4&#45;&#45;3 -->
<g id="edge8" class="edge"><title>4&#45;&#45;3</title>
<path fill="none" stroke="black" d="M604,-432.762C604,-405.063 604,-352.7 604,-325.09"/>
<text text-anchor="middle" x="598" y="-374.793" font-family="Times Roman,serif" font-size="14.00">2</text>
</g>
<!-- 5 -->
<g id="node6" class="node"><title>5</title>
<ellipse fill="none" stroke="black" cx="532" cy="-451" rx="27" ry="18"/>
<text text-anchor="middle" x="532" y="-446.9" font-family="Times Roman,serif" font-size="14.00">4</text>
</g>
<!-- 5&#45;&#45;4 -->
<g id="edge10" class="edge"><title>5&#45;&#45;4</title>
<path fill="none" stroke="black" d="M559.22,-451C564.955,-451 571.006,-451 576.741,-451"/>
<text text-anchor="middle" x="567.98" y="-437.9" font-family="Times Roman,serif" font-size="14.00">1</text>
</g>
<!-- 6 -->
<g id="node7" class="node"><title>6</title>
<ellipse fill="none" stroke="black" cx="604" cy="-163" rx="27" ry="18"/>
<text text-anchor="middle" x="604" y="-158.9" font-family="Times Roman,serif" font-size="14.00">6</text>
</g>
<!-- 6&#45;&#45;5 -->
<g id="edge12" class="edge"><title>6&#45;&#45;5</title>
<path fill="none" stroke="black" d="M599.496,-181.016C586.566,-232.737 549.43,-381.279 536.502,-432.991"/>
<text text-anchor="middle" x="560.998" y="-301.907" font-family="Times Roman,serif" font-size="14.00">4</text>
</g>
<!-- 7 -->
<g id="node8" class="node"><title>7</title>
<ellipse fill="none" stroke="black" cx="388" cy="-19" rx="27" ry="18"/>
<text text-anchor="middle" x="388" y="-14.9" font-family="Times Roman,serif" font-size="14.00">3</text>
</g>
<!-- 7&#45;&#45;6 -->
<g id="edge14" class="edge"><title>7&#45;&#45;6</title>
<path fill="none" stroke="black" d="M407.169,-31.779C448.158,-59.1055 543.923,-122.949 584.874,-150.25"/>
<text text-anchor="middle" x="502.036" y="-77.9239" font-family="Times Roman,serif" font-size="14.00">3</text>
</g>
<!-- 8 -->
<g id="node9" class="node"><title>8</title>
<ellipse fill="none" stroke="black" cx="316" cy="-19" rx="27" ry="18"/>
<text text-anchor="middle" x="316" y="-14.9" font-family="Times Roman,serif" font-size="14.00">7</text>
</g>
<!-- 8&#45;&#45;7 -->
<g id="edge16" class="edge"><title>8&#45;&#45;7</title>
<path fill="none" stroke="black" d="M343.22,-19C348.955,-19 355.006,-19 360.741,-19"/>
<text text-anchor="middle" x="351.98" y="-5.9" font-family="Times Roman,serif" font-size="14.00">1</text>
</g>
<!-- 9 -->
<g id="node10" class="node"><title>9</title>
<ellipse fill="none" stroke="black" cx="244" cy="-163" rx="27" ry="18"/>
<text text-anchor="middle" x="244" y="-158.9" font-family="Times Roman,serif" font-size="14.00">5</text>
</g>
<!-- 9&#45;&#45;8 -->
<g id="edge18" class="edge"><title>9&#45;&#45;8</title>
<path fill="none" stroke="black" d="M252.542,-145.916C266.325,-118.351 293.327,-64.3463 307.244,-36.511"/>
<text text-anchor="middle" x="287.843" y="-91.2148" font-family="Times Roman,serif" font-size="14.00">2</text>
</g>
</g>
</svg>
