<?xml version="1.0" encoding="UTF-8" standalone="no"?>
<!DOCTYPE svg PUBLIC "-//W3C//DTD SVG 1.1//EN"
 "http://www.w3.org/Graphics/SVG/1.1/DTD/svg11.dtd">
<!-- Generated by graphviz version 2.26.3 (20100126.1600)
 -->
<!-- Title: G Pages: 1 -->
<svg width="640pt" height="550pt"
 viewBox="0.00 0.00 640.00 550.00" xmlns="http://www.w3.org/2000/svg" xmlns:xlink="http://www.w3.org/1999/xlink">
<g id="graph1" class="graph" transform="scale(1 1) rotate(0) translate(4 546)">
<title>G</title>
<polygon fill="white" stroke="white" points="-4,5 -4,-546 637,-546 637,5 -4,5"/>
<!-- 0 -->
<g id="node1" class="node"><title>0</title>
<ellipse fill="none" stroke="black" cx="100" cy="-523" rx="27" ry="18"/>
<text text-anchor="middle" x="100" y="-518.9" font-family="Times Roman,serif" font-size="14.00">9</text>
</g>
<!-- 1 -->
<g id="node2" class="node"><title>1</title>
<ellipse fill="none" stroke="black" cx="28" cy="-523" rx="27" ry="18"/>
<text text-anchor="middle" x="28" y="-518.9" font-family="Times Roman,serif" font-size="14.00">8</text>
</g>
<!-- 0&#45;&#45;1 -->
<g id="edge2" class="edge"><title>0&#45;&#45;1</title>
<path fill="none" stroke="black" d="M72.7799,-523C67.0454,-523 60.9945,-523 55.2586,-523"/>
<text text-anchor="middle" x="64.0198" y="-509.9" font-family="Times Roman,serif" font-size="14.00">1</text>
</g>
<!-- 2 -->
<g id="node3" class="node"><title>2</title>
<ellipse fill="none" stroke="black" cx="388" cy="-523" rx="27" ry="18"/>
<text text-anchor="middle" x="388" y="-518.9" font-family="Times Roman,serif" font-size="14.00">0</text>
</g>
<!-- 1&#45;&#45;2 -->
<g id="edge4" class="edge"><title>1&#45;&#45;2</title>
<path fill="none" stroke="black" d="M51.9541,-514.323C65.7864,-509.861 83.6371,-505.025 100.012,-503.4 196.259,-493.851 311.068,-509.84 361.748,-518.288"/>
<text text-anchor="middle" x="100.01" y="-490.3" font-family="Times Roman,serif" font-size="14.00">5</text>
</g>
<!-- 3 -->
<g id="node4" class="node"><title>3</title>
<ellipse fill="none" stroke="black" cx="532" cy="-451" rx="27" ry="18"/>
<text text-anchor="middle" x="532" y="-446.9" font-family="Times Roman,serif" font-size="14.00">4</text>
</g>
<!-- 2&#45;&#45;3 -->
<g id="edge6" class="edge"><title>2&#45;&#45;3</title>
<path fill="none" stroke="black" d="M409.871,-512.065C437.093,-498.453 483.297,-475.352 510.396,-461.802"/>
<text text-anchor="middle" x="465.18" y="-492.81" font-family="Times Roman,serif" font-size="14.00">2</text>
</g>
<!-- 4 -->
<g id="node5" class="node"><title>4</title>
<ellipse fill="none" stroke="black" cx="604" cy="-451" rx="27" ry="18"/>
<text text-anchor="middle" x="604" y="-446.9" font-family="Times Roman,serif" font-size="14.00">2</text>
</g>
<!-- 3&#45;&#45;4 -->
<g id="edge8" class="edge"><title>3&#45;&#45;4</title>
<path fill="none" stroke="black" d="M559.22,-451C564.955,-451 571.006,-451 576.741,-451"/>
<text text-anchor="middle" x="567.98" y="-437.9" font-family="Times Roman,serif" font-size="14.00">1</text>
</g>
<!-- 5 -->
<g id="node6" class="node"><title>5</title>
<ellipse fill="none" stroke="black" cx="604" cy="-307" rx="27" ry="18"/>
<text text-anchor="middle" x="604" y="-302.9" font-family="Times Roman,serif" font-size="14.00">1</text>
</g>
<!-- 4&#45;&#45;5 -->
<g id="edge10" class="edge"><title>4&#45;&#45;5</title>
<path fill="none" stroke="black" d="M604,-432.762C604,-405.063 604,-352.7 604,-325.09"/>
<text text-anchor="middle" x="598" y="-374.793" font-family="Times Roman,serif" font-size="14.00">2</text>
</g>
<!-- 6 -->
<g id="node7" class="node"><title>6</title>
<ellipse fill="none" stroke="black" cx="604" cy="-163" rx="27" ry="18"/>
<text text-anchor="middle" x="604" y="-158.9" font-family="Times Roman,serif" font-size="14.00">6</text>
</g>
<!-- 5&#45;&#45;6 -->
<g id="edge12" class="edge"><title>5&#45;&#45;6</title>
<path fill="none" stroke="black" d="M604,-288.762C604,-261.063 604,-208.7 604,-181.09"/>
<text text-anchor="middle" x="598" y="-230.793" font-family="Times Roman,serif" font-size="14.00">2</text>
</g>
<!-- 7 -->
<g id="node8" class="node"><title>7</title>
<ellipse fill="none" stroke="black" cx="388" cy="-19" rx="27" ry="18"/>
<text text-anchor="middle" x="388" y="-14.9" font-family="Times Roman,serif" font-size="14.00">3</text>
</g>
<!-- 6&#45;&#45;7 -->
<g id="edge14" class="edge"><title>6&#45;&#45;7</title>
<path fill="none" stroke="black" d="M584.831,-150.221C543.842,-122.894 448.077,-59.0513 407.126,-31.7504"/>
<text text-anchor="middle" x="489.964" y="-95.8761" font-family="Times Roman,serif" font-size="14.00">3</text>
</g>
<!-- 8 -->
<g id="node9" class="node"><title>8</title>
<ellipse fill="none" stroke="black" cx="316" cy="-19" rx="27" ry="18"/>
<text text-anchor="middle" x="316" y="-14.9" font-family="Times Roman,serif" font-size="14.00">7</text>
</g>
<!-- 7&#45;&#45;8 -->
<g id="edge16" class="edge"><title>7&#45;&#45;8</title>
<path fill="none" stroke="black" d="M360.78,-19C355.045,-19 348.994,-19 343.259,-19"/>
<text text-anchor="middle" x="352.02" y="-5.9" font-family="Times Roman,serif" font-size="14.00">1</text>
</g>
<!-- 9 -->
<g id="node10" class="node"><title>9</title>
<ellipse fill="none" stroke="black" cx="244" cy="-163" rx="27" ry="18"/>
<text text-anchor="middle" x="244" y="-158.9" font-family="Times Roman,serif" font-size="14.00">5</text>
</g>
<!-- 8&#45;&#45;9 -->
<g id="edge18" class="edge"><title>8&#45;&#45;9</title>
<path fill="none" stroke="black" d="M307.458,-36.0842C293.675,-63.6492 266.673,-117.654 252.756,-145.489"/>
<text text-anchor="middle" x="272.157" y="-82.5852" font-family="Times Roman,serif" font-size="14.00">2</text>
</g>
</g>
</svg>
