<?xml version="1.0" encoding="UTF-8" standalone="no"?>
<!DOCTYPE svg PUBLIC "-//W3C//DTD SVG 1.1//EN"
 "http://www.w3.org/Graphics/SVG/1.1/DTD/svg11.dtd">
<!-- Generated by graphviz version 2.26.3 (20100126.1600)
 -->
<!-- Title: G Pages: 1 -->
<svg width="640pt" height="550pt"
 viewBox="0.00 0.00 640.00 550.00" xmlns="http://www.w3.org/2000/svg" xmlns:xlink="http://www.w3.org/1999/xlink">
<g id="graph1" class="graph" transform="scale(1 1) rotate(0) translate(4 546)">
<title>G</title>
<polygon fill="white" stroke="white" points="-4,5 -4,-546 637,-546 637,5 -4,5"/>
<!-- 0 -->
<g id="node1" class="node"><title>0</title>
<ellipse fill="none" stroke="black" cx="388" cy="-523" rx="27" ry="18"/>
<text text-anchor="middle" x="388" y="-518.9" font-family="Times Roman,serif" font-size="14.00">0</text>
</g>
<!-- 1 -->
<g id="node2" class="node"><title>1</title>
<ellipse fill="none" stroke="black" cx="604" cy="-307" rx="27" ry="18"/>
<text text-anchor="middle" x="604" y="-302.9" font-family="Times Roman,serif" font-size="14.00">1</text>
</g>
<!-- 1&#45;&#45;0 -->
<g id="edge2" class="edge"><title>1&#45;&#45;0</title>
<path fill="none" stroke="black" d="M588.811,-322.189C549.152,-361.848 442.813,-468.187 403.172,-507.828"/>
</g>
<!-- 2 -->
<g id="node3" class="node"><title>2</title>
<ellipse fill="none" stroke="black" cx="604" cy="-451" rx="27" ry="18"/>
<text text-anchor="middle" x="604" y="-446.9" font-family="Times Roman,serif" font-size="14.00">2</text>
</g>
<!-- 2&#45;&#45;0 -->
<g id="edge4" class="edge"><title>2&#45;&#45;0</title>
<path fill="none" stroke="black" d="M579.642,-459.119C538.047,-472.984 453.803,-501.066 412.269,-514.91"/>
</g>
<!-- 2&#45;&#45;1 -->
<g id="edge6" class="edge"><title>2&#45;&#45;1</title>
<path fill="none" stroke="black" d="M604,-432.762C604,-405.063 604,-352.7 604,-325.09"/>
</g>
<!-- 3 -->
<g id="node4" class="node"><title>3</title>
<ellipse fill="none" stroke="black" cx="388" cy="-19" rx="27" ry="18"/>
<text text-anchor="middle" x="388" y="-14.9" font-family="Times Roman,serif" font-size="14.00">3</text>
</g>
<!-- 3&#45;&#45;0 -->
<g id="edge8" class="edge"><title>3&#45;&#45;0</title>
<path fill="none" stroke="black" d="M388,-37.2354C388,-115.945 388,-426.128 388,-504.789"/>
</g>
<!-- 3&#45;&#45;1 -->
<g id="edge10" class="edge"><title>3&#45;&#45;1</title>
<path fill="none" stroke="black" d="M400.232,-35.3093C438.25,-86.0005 554.067,-240.423 591.902,-290.87"/>
</g>
<!-- 3&#45;&#45;2 -->
<g id="edge12" class="edge"><title>3&#45;&#45;2</title>
<path fill="none" stroke="black" d="M396.601,-36.2015C431.282,-105.563 560.649,-364.298 595.375,-433.749"/>
</g>
<!-- 4 -->
<g id="node5" class="node"><title>4</title>
<ellipse fill="none" stroke="black" cx="532" cy="-451" rx="27" ry="18"/>
<text text-anchor="middle" x="532" y="-446.9" font-family="Times Roman,serif" font-size="14.00">4</text>
</g>
<!-- 4&#45;&#45;0 -->
<g id="edge14" class="edge"><title>4&#45;&#45;0</title>
<path fill="none" stroke="black" d="M510.129,-461.935C482.907,-475.547 436.703,-498.648 409.604,-512.198"/>
</g>
<!-- 4&#45;&#45;1 -->
<g id="edge16" class="edge"><title>4&#45;&#45;1</title>
<path fill="none" stroke="black" d="M540.542,-433.916C554.325,-406.351 581.327,-352.346 595.244,-324.511"/>
</g>
<!-- 4&#45;&#45;2 -->
<g id="edge18" class="edge"><title>4&#45;&#45;2</title>
<path fill="none" stroke="black" d="M559.22,-451C564.955,-451 571.006,-451 576.741,-451"/>
</g>
<!-- 4&#45;&#45;3 -->
<g id="edge20" class="edge"><title>4&#45;&#45;3</title>
<path fill="none" stroke="black" d="M526.087,-433.26C502.747,-363.241 417.169,-106.507 393.883,-36.6498"/>
</g>
<!-- 5 -->
<g id="node6" class="node"><title>5</title>
<ellipse fill="none" stroke="black" cx="244" cy="-163" rx="27" ry="18"/>
<text text-anchor="middle" x="244" y="-158.9" font-family="Times Roman,serif" font-size="14.00">5</text>
</g>
<!-- 5&#45;&#45;0 -->
<g id="edge22" class="edge"><title>5&#45;&#45;0</title>
<path fill="none" stroke="black" d="M251.141,-180.852C275.714,-242.285 356.607,-444.519 380.986,-505.464"/>
</g>
<!-- 5&#45;&#45;1 -->
<g id="edge24" class="edge"><title>5&#45;&#45;1</title>
<path fill="none" stroke="black" d="M267.343,-172.337C332.471,-198.389 515.646,-271.658 580.71,-297.684"/>
</g>
<!-- 5&#45;&#45;2 -->
<g id="edge26" class="edge"><title>5&#45;&#45;2</title>
<path fill="none" stroke="black" d="M261.364,-176.891C322.179,-225.543 525.189,-387.951 586.389,-436.911"/>
</g>
<!-- 5&#45;&#45;3 -->
<g id="edge28" class="edge"><title>5&#45;&#45;3</title>
<path fill="none" stroke="black" d="M259.138,-147.862C286.723,-120.277 344.878,-62.1225 372.631,-34.3689"/>
</g>
<!-- 5&#45;&#45;4 -->
<g id="edge30" class="edge"><title>5&#45;&#45;4</title>
<path fill="none" stroke="black" d="M259.079,-178.079C308.73,-227.73 466.784,-385.784 516.723,-435.723"/>
</g>
<!-- 6 -->
<g id="node7" class="node"><title>6</title>
<ellipse fill="none" stroke="black" cx="604" cy="-163" rx="27" ry="18"/>
<text text-anchor="middle" x="604" y="-158.9" font-family="Times Roman,serif" font-size="14.00">6</text>
</g>
<!-- 6&#45;&#45;0 -->
<g id="edge32" class="edge"><title>6&#45;&#45;0</title>
<path fill="none" stroke="black" d="M593.872,-179.881C557.59,-240.35 434.353,-445.745 398.106,-506.156"/>
</g>
<!-- 6&#45;&#45;1 -->
<g id="edge34" class="edge"><title>6&#45;&#45;1</title>
<path fill="none" stroke="black" d="M604,-181.238C604,-208.937 604,-261.3 604,-288.91"/>
</g>
<!-- 6&#45;&#45;2 -->
<g id="edge36" class="edge"><title>6&#45;&#45;2</title>
<path fill="none" stroke="black" d="M598.076,-180.946C589.7,-207.955 575.406,-260.805 575.4,-306.911 575.395,-353.072 589.694,-405.988 598.073,-433.031"/>
</g>
<!-- 6&#45;&#45;3 -->
<g id="edge38" class="edge"><title>6&#45;&#45;3</title>
<path fill="none" stroke="black" d="M584.831,-150.221C543.842,-122.894 448.077,-59.0513 407.126,-31.7504"/>
</g>
<!-- 6&#45;&#45;4 -->
<g id="edge40" class="edge"><title>6&#45;&#45;4</title>
<path fill="none" stroke="black" d="M599.496,-181.016C586.566,-232.737 549.43,-381.279 536.502,-432.991"/>
</g>
<!-- 6&#45;&#45;5 -->
<g id="edge42" class="edge"><title>6&#45;&#45;5</title>
<path fill="none" stroke="black" d="M576.941,-163C510.225,-163 338.417,-163 271.373,-163"/>
</g>
<!-- 7 -->
<g id="node8" class="node"><title>7</title>
<ellipse fill="none" stroke="black" cx="316" cy="-19" rx="27" ry="18"/>
<text text-anchor="middle" x="316" y="-14.9" font-family="Times Roman,serif" font-size="14.00">7</text>
</g>
<!-- 7&#45;&#45;0 -->
<g id="edge44" class="edge"><title>7&#45;&#45;0</title>
<path fill="none" stroke="black" d="M318.563,-36.9376C329.748,-115.234 374.232,-426.624 385.431,-505.015"/>
</g>
<!-- 7&#45;&#45;1 -->
<g id="edge46" class="edge"><title>7&#45;&#45;1</title>
<path fill="none" stroke="black" d="M331.079,-34.0786C380.73,-83.7305 538.784,-241.784 588.723,-291.723"/>
</g>
<!-- 7&#45;&#45;2 -->
<g id="edge48" class="edge"><title>7&#45;&#45;2</title>
<path fill="none" stroke="black" d="M327.113,-35.6702C372.908,-104.363 546.742,-365.114 592.764,-434.146"/>
</g>
<!-- 7&#45;&#45;3 -->
<g id="edge50" class="edge"><title>7&#45;&#45;3</title>
<path fill="none" stroke="black" d="M343.22,-19C348.955,-19 355.006,-19 360.741,-19"/>
</g>
<!-- 7&#45;&#45;4 -->
<g id="edge52" class="edge"><title>7&#45;&#45;4</title>
<path fill="none" stroke="black" d="M324.601,-36.2015C359.282,-105.563 488.649,-364.298 523.375,-433.749"/>
</g>
<!-- 7&#45;&#45;5 -->
<g id="edge54" class="edge"><title>7&#45;&#45;5</title>
<path fill="none" stroke="black" d="M307.458,-36.0842C293.675,-63.6492 266.673,-117.654 252.756,-145.489"/>
</g>
<!-- 7&#45;&#45;6 -->
<g id="edge56" class="edge"><title>7&#45;&#45;6</title>
<path fill="none" stroke="black" d="M337.647,-29.8234C391.02,-56.5098 528.466,-125.233 582.102,-152.051"/>
</g>
<!-- 8 -->
<g id="node9" class="node"><title>8</title>
<ellipse fill="none" stroke="black" cx="28" cy="-523" rx="27" ry="18"/>
<text text-anchor="middle" x="28" y="-518.9" font-family="Times Roman,serif" font-size="14.00">8</text>
</g>
<!-- 8&#45;&#45;0 -->
<g id="edge58" class="edge"><title>8&#45;&#45;0</title>
<path fill="none" stroke="black" d="M51.9859,-514.322C65.8363,-509.86 83.71,-505.024 100.105,-503.4 196.322,-493.871 311.094,-509.85 361.756,-518.292"/>
</g>
<!-- 8&#45;&#45;1 -->
<g id="edge60" class="edge"><title>8&#45;&#45;1</title>
<path fill="none" stroke="black" d="M51.6537,-514.13C145.012,-479.121 487.324,-350.754 580.467,-315.825"/>
</g>
<!-- 8&#45;&#45;2 -->
<g id="edge62" class="edge"><title>8&#45;&#45;2</title>
<path fill="none" stroke="black" d="M52.4359,-515.117C66.2779,-510.967 83.9968,-506.175 100.105,-503.4 289.745,-470.726 342.195,-503.255 531.838,-470.6 547.958,-467.824 565.691,-463.033 579.544,-458.882"/>
</g>
<!-- 8&#45;&#45;3 -->
<g id="edge64" class="edge"><title>8&#45;&#45;3</title>
<path fill="none" stroke="black" d="M39.7732,-506.518C94.3037,-430.175 321.977,-111.433 376.317,-35.3567"/>
</g>
<!-- 8&#45;&#45;4 -->
<g id="edge66" class="edge"><title>8&#45;&#45;4</title>
<path fill="none" stroke="black" d="M52.4872,-515.397C66.3453,-511.333 84.0632,-506.536 100.105,-503.4 251.697,-473.762 436.701,-458.038 505.001,-452.91"/>
</g>
<!-- 8&#45;&#45;5 -->
<g id="edge68" class="edge"><title>8&#45;&#45;5</title>
<path fill="none" stroke="black" d="M38.1284,-506.119C74.4101,-445.65 197.647,-240.255 233.894,-179.844"/>
</g>
<!-- 8&#45;&#45;6 -->
<g id="edge70" class="edge"><title>8&#45;&#45;6</title>
<path fill="none" stroke="black" d="M47.8272,-510.608C136.451,-455.218 495.803,-230.623 584.256,-175.34"/>
</g>
<!-- 8&#45;&#45;7 -->
<g id="edge72" class="edge"><title>8&#45;&#45;7</title>
<path fill="none" stroke="black" d="M35.6455,-505.565C59.8802,-450.996 138.442,-279.364 223.777,-149.14 251.249,-107.218 285.976,-59.5201 303.965,-35.1704"/>
</g>
<!-- 9 -->
<g id="node10" class="node"><title>9</title>
<ellipse fill="none" stroke="black" cx="100" cy="-523" rx="27" ry="18"/>
<text text-anchor="middle" x="100" y="-518.9" font-family="Times Roman,serif" font-size="14.00">9</text>
</g>
<!-- 9&#45;&#45;0 -->
<g id="edge74" class="edge"><title>9&#45;&#45;0</title>
<path fill="none" stroke="black" d="M127.094,-523C181.985,-523 305.762,-523 360.768,-523"/>
</g>
<!-- 9&#45;&#45;1 -->
<g id="edge76" class="edge"><title>9&#45;&#45;1</title>
<path fill="none" stroke="black" d="M122.965,-513.158C207.023,-477.133 497.383,-352.693 581.188,-316.776"/>
</g>
<!-- 9&#45;&#45;2 -->
<g id="edge78" class="edge"><title>9&#45;&#45;2</title>
<path fill="none" stroke="black" d="M126.995,-521.087C195.286,-515.955 380.263,-500.219 531.838,-470.6 547.892,-467.463 565.624,-462.666 579.493,-458.603"/>
</g>
<!-- 9&#45;&#45;3 -->
<g id="edge80" class="edge"><title>9&#45;&#45;3</title>
<path fill="none" stroke="black" d="M109.747,-505.942C153.816,-428.822 334.191,-113.165 378.255,-36.0535"/>
</g>
<!-- 9&#45;&#45;4 -->
<g id="edge82" class="edge"><title>9&#45;&#45;4</title>
<path fill="none" stroke="black" d="M126.373,-518.604C203.588,-505.735 428.574,-468.238 505.698,-455.384"/>
</g>
<!-- 9&#45;&#45;5 -->
<g id="edge84" class="edge"><title>9&#45;&#45;5</title>
<path fill="none" stroke="black" d="M107.141,-505.148C131.714,-443.715 212.607,-241.481 236.986,-180.536"/>
</g>
<!-- 9&#45;&#45;6 -->
<g id="edge86" class="edge"><title>9&#45;&#45;6</title>
<path fill="none" stroke="black" d="M118.535,-509.76C197.654,-453.247 506.635,-232.547 585.563,-176.169"/>
</g>
<!-- 9&#45;&#45;7 -->
<g id="edge88" class="edge"><title>9&#45;&#45;7</title>
<path fill="none" stroke="black" d="M109.42,-505.818C137.152,-454.759 219.853,-299.034 272.6,-163 289.78,-118.693 304.468,-64.6027 311.524,-37.034"/>
</g>
<!-- 9&#45;&#45;8 -->
<g id="edge90" class="edge"><title>9&#45;&#45;8</title>
<path fill="none" stroke="black" d="M72.7799,-523C67.0454,-523 60.9945,-523 55.2586,-523"/>
</g>
</g>
</svg>
